<svg width="165" height="29" viewBox="0 0 165 29" fill="none" xmlns="http://www.w3.org/2000/svg">
<path fill-rule="evenodd" clip-rule="evenodd" d="M12.0344 9.14844C14.0095 9.14844 15.6106 7.54821 15.6106 5.57422C15.6106 3.60024 14.0095 2 12.0344 2C10.0595 2 8.45837 3.60024 8.45837 5.57422C8.45837 7.54821 10.0595 9.14844 12.0344 9.14844Z" fill="#FFC649"/>
<path fill-rule="evenodd" clip-rule="evenodd" d="M12.0344 18.1484C14.0095 18.1484 15.6106 16.5482 15.6106 14.5743C15.6106 12.6002 14.0095 11 12.0344 11C10.0595 11 8.45837 12.6002 8.45837 14.5743C8.45837 16.5482 10.0595 18.1484 12.0344 18.1484Z" fill="#D2C5A7"/>
<path fill-rule="evenodd" clip-rule="evenodd" d="M3.92812 18.1484C5.9032 18.1484 7.50428 16.5482 7.50428 14.5743C7.50428 12.6002 5.9032 11 3.92812 11C1.95313 11 0.352051 12.6002 0.352051 14.5743C0.352051 16.5482 1.95313 18.1484 3.92812 18.1484Z" fill="#9BD3D0"/>
<path fill-rule="evenodd" clip-rule="evenodd" d="M3.92812 27.9033C5.9032 27.9033 7.50428 26.3031 7.50428 24.3291C7.50428 22.3552 5.9032 20.7549 3.92812 20.7549C1.95313 20.7549 0.352051 22.3552 0.352051 24.3291C0.352051 26.3031 1.95313 27.9033 3.92812 27.9033Z" fill="#FECCB5"/>
<path fill-rule="evenodd" clip-rule="evenodd" d="M3.57611 9.14844C5.55115 9.14844 7.15222 7.54823 7.15222 5.57426C7.15222 3.60021 5.55115 2 3.57611 2C1.60108 2 0 3.60021 0 5.57426C0 7.54823 1.60108 9.14844 3.57611 9.14844Z" fill="#FCF6E8"/>
<path d="M25.29 28V3.5H35.37C37.54 3.5 39.395 3.85 40.935 4.55C42.4983 5.25 43.7 6.25333 44.54 7.56C45.38 8.86667 45.8 10.4183 45.8 12.215C45.8 14.0117 45.38 15.5633 44.54 16.87C43.7 18.1767 42.4983 19.18 40.935 19.88C39.395 20.58 37.54 20.93 35.37 20.93H27.81L29.84 18.795V28H25.29ZM29.84 19.285L27.81 17.08H35.16C37.1667 17.08 38.6717 16.66 39.675 15.82C40.7017 14.9567 41.215 13.755 41.215 12.215C41.215 10.6517 40.7017 9.45 39.675 8.61C38.6717 7.77 37.1667 7.35 35.16 7.35H27.81L29.84 5.11V19.285ZM58.6404 28.245C56.5637 28.245 54.7437 27.8367 53.1804 27.02C51.6404 26.18 50.4387 25.0367 49.5754 23.59C48.7354 22.1433 48.3154 20.4983 48.3154 18.655C48.3154 16.7883 48.7237 15.1433 49.5404 13.72C50.3804 12.2733 51.5237 11.1417 52.9704 10.325C54.4404 9.50833 56.1087 9.1 57.9754 9.1C59.7954 9.1 61.417 9.49667 62.8404 10.29C64.2637 11.0833 65.3837 12.2033 66.2004 13.65C67.017 15.0967 67.4254 16.8 67.4254 18.76C67.4254 18.9467 67.4137 19.1567 67.3904 19.39C67.3904 19.6233 67.3787 19.845 67.3554 20.055H51.7804V17.15H65.0454L63.3304 18.06C63.3537 16.9867 63.132 16.0417 62.6654 15.225C62.1987 14.4083 61.557 13.7667 60.7404 13.3C59.947 12.8333 59.0254 12.6 57.9754 12.6C56.902 12.6 55.957 12.8333 55.1404 13.3C54.347 13.7667 53.717 14.42 53.2504 15.26C52.807 16.0767 52.5854 17.045 52.5854 18.165V18.865C52.5854 19.985 52.842 20.9767 53.3554 21.84C53.8687 22.7033 54.592 23.3683 55.5254 23.835C56.4587 24.3017 57.532 24.535 58.7454 24.535C59.7954 24.535 60.7404 24.3717 61.5804 24.045C62.4204 23.7183 63.167 23.205 63.8204 22.505L66.1654 25.2C65.3254 26.18 64.2637 26.9383 62.9804 27.475C61.7204 27.9883 60.2737 28.245 58.6404 28.245ZM71.6278 28V9.31H75.7928V14.455L75.3028 12.95C75.8628 11.69 76.7378 10.7333 77.9278 10.08C79.1411 9.42667 80.6461 9.1 82.4428 9.1V13.265C82.2561 13.2183 82.0811 13.195 81.9178 13.195C81.7545 13.1717 81.5911 13.16 81.4278 13.16C79.7711 13.16 78.4528 13.65 77.4728 14.63C76.4928 15.5867 76.0028 17.0217 76.0028 18.935V28H71.6278ZM94.3833 28.245C92.4699 28.245 90.7666 27.8367 89.2733 27.02C87.7799 26.18 86.6016 25.0367 85.7383 23.59C84.8749 22.1433 84.4433 20.4983 84.4433 18.655C84.4433 16.7883 84.8749 15.1433 85.7383 13.72C86.6016 12.2733 87.7799 11.1417 89.2733 10.325C90.7666 9.50833 92.4699 9.1 94.3833 9.1C96.3199 9.1 98.0349 9.50833 99.5283 10.325C101.045 11.1417 102.223 12.2617 103.063 13.685C103.927 15.1083 104.358 16.765 104.358 18.655C104.358 20.4983 103.927 22.1433 103.063 23.59C102.223 25.0367 101.045 26.18 99.5283 27.02C98.0349 27.8367 96.3199 28.245 94.3833 28.245ZM94.3833 24.5C95.4566 24.5 96.4133 24.2667 97.2533 23.8C98.0933 23.3333 98.7466 22.6567 99.2133 21.77C99.7033 20.8833 99.9483 19.845 99.9483 18.655C99.9483 17.4417 99.7033 16.4033 99.2133 15.54C98.7466 14.6533 98.0933 13.9767 97.2533 13.51C96.4133 13.0433 95.4683 12.81 94.4183 12.81C93.3449 12.81 92.3883 13.0433 91.5483 13.51C90.7316 13.9767 90.0783 14.6533 89.5883 15.54C89.0983 16.4033 88.8533 17.4417 88.8533 18.655C88.8533 19.845 89.0983 20.8833 89.5883 21.77C90.0783 22.6567 90.7316 23.3333 91.5483 23.8C92.3883 24.2667 93.3333 24.5 94.3833 24.5ZM117.117 28.245C115.157 28.245 113.407 27.8367 111.867 27.02C110.35 26.18 109.16 25.0367 108.297 23.59C107.434 22.1433 107.002 20.4983 107.002 18.655C107.002 16.7883 107.434 15.1433 108.297 13.72C109.16 12.2733 110.35 11.1417 111.867 10.325C113.407 9.50833 115.157 9.1 117.117 9.1C118.937 9.1 120.535 9.47333 121.912 10.22C123.312 10.9433 124.374 12.0167 125.097 13.44L121.737 15.4C121.177 14.5133 120.489 13.86 119.672 13.44C118.879 13.02 118.015 12.81 117.082 12.81C116.009 12.81 115.04 13.0433 114.177 13.51C113.314 13.9767 112.637 14.6533 112.147 15.54C111.657 16.4033 111.412 17.4417 111.412 18.655C111.412 19.8683 111.657 20.9183 112.147 21.805C112.637 22.6683 113.314 23.3333 114.177 23.8C115.04 24.2667 116.009 24.5 117.082 24.5C118.015 24.5 118.879 24.29 119.672 23.87C120.489 23.45 121.177 22.7967 121.737 21.91L125.097 23.87C124.374 25.27 123.312 26.355 121.912 27.125C120.535 27.8717 118.937 28.245 117.117 28.245ZM139.313 9.1C140.806 9.1 142.136 9.39167 143.303 9.975C144.493 10.5583 145.426 11.4567 146.103 12.67C146.78 13.86 147.118 15.4 147.118 17.29V28H142.743V17.85C142.743 16.1933 142.346 14.9567 141.553 14.14C140.783 13.3233 139.698 12.915 138.298 12.915C137.271 12.915 136.361 13.125 135.568 13.545C134.775 13.965 134.156 14.595 133.713 15.435C133.293 16.2517 133.083 17.29 133.083 18.55V28H128.708V2.03H133.083V14.35L132.138 12.81C132.791 11.62 133.736 10.71 134.973 10.08C136.233 9.42667 137.68 9.1 139.313 9.1ZM152.668 28V9.31H157.043V28H152.668ZM154.873 6.23C154.056 6.23 153.38 5.97333 152.843 5.46C152.33 4.94667 152.073 4.32833 152.073 3.605C152.073 2.85833 152.33 2.24 152.843 1.75C153.38 1.23667 154.056 0.979999 154.873 0.979999C155.69 0.979999 156.355 1.225 156.868 1.715C157.405 2.18167 157.673 2.77667 157.673 3.5C157.673 4.27 157.416 4.92333 156.903 5.46C156.39 5.97333 155.713 6.23 154.873 6.23Z" fill="#FCF6E8"/>
</svg>
