<?xml version="1.0" encoding="utf-8"?>
<!-- Generator: Adobe Illustrator 28.1.0, SVG Export Plug-In . SVG Version: 6.00 Build 0)  -->
<svg version="1.1" id="Layer_1" xmlns="http://www.w3.org/2000/svg" xmlns:xlink="http://www.w3.org/1999/xlink" x="0px" y="0px"
	 viewBox="0 0 767.59 192.96" style="enable-background:new 0 0 767.59 192.96;" xml:space="preserve">
<style type="text/css">
	.st0{fill:#179396;}
	.st1{fill:#F47D20;}
	.st2{fill:none;stroke:#000000;stroke-width:3;stroke-miterlimit:10;}
	.st3{fill:#FFFFFF;}
	.st4{font-family:'LibreBaskerville-Regular';}
	.st5{font-size:47.9673px;}
	.st6{fill:#FFFFFF;stroke:#FFFFFF;stroke-width:0.25;stroke-miterlimit:10;}
	.st7{font-family:'LibreBaskerville-Bold';}
	.st8{font-size:53.6106px;}
	.st9{letter-spacing:13;}
	.st10{fill:none;stroke:#FFFFFF;stroke-width:2;stroke-miterlimit:10;}
</style>
<g>
	<g>
		<text transform="matrix(1 0 0 1 213.0247 136.9554)" class="st3 st4 st5">COMMUNICATIONS</text>
		<text transform="matrix(1 0 0 1 277.7196 74.6839)" class="st6 st7 st8 st9">RAYDAWN</text>
	</g>
	<g>
		<path class="st3" d="M95.29,0L59.87,35.43l6.54,6.54l28.89-28.89l83.41,83.4l-83.41,83.4L66.41,151l-6.54,6.54l35.42,35.42
			l96.48-96.48L95.29,0z"/>
		<path class="st3" d="M47.06,61.32l-6.54-6.54l-41.7,41.7l41.7,41.7l6.54-6.54L11.89,96.48L47.06,61.32z"/>
		<g>
			<line class="st10" x1="129.43" y1="64.73" x2="63.45" y2="130.71"/>
			<path class="st3" d="M125.43,108.17c-1.08-2.37-2.58-4.43-4.51-6.15c-1.91-1.73-4.2-3.09-6.85-4.07
				c-0.99-0.36-2.01-0.66-3.06-0.89c-0.45-0.1-0.92,0.05-1.24,0.38l-2.21,2.21c1.24,0.15,2.37,0.49,3.42,0.95
				c1.67,0.75,3.09,1.83,4.28,3.24c1.18,1.42,2.06,3.17,2.7,5.2c0.62,2.06,0.93,4.4,0.93,7c0,4.92-1.16,8.68-3.45,11.25
				c-2.32,2.58-5.59,3.86-9.86,3.86c-2.45,0-4.25-0.46-5.43-1.36c-1.18-0.9-1.75-2.32-1.75-4.2v-13.52c0-1.21-1.46-1.81-2.31-0.96
				l-4.5,4.5c-0.25,0.25-0.4,0.6-0.4,0.96v10.02c0,1.18-0.05,2.11-0.18,2.83c-0.13,0.7-0.39,1.24-0.77,1.65
				c-0.36,0.41-0.9,0.7-1.57,0.85c-0.67,0.13-1.52,0.23-2.6,0.26v1.96h20.4c3.04,0,5.82-0.44,8.34-1.34
				c2.52-0.9,4.69-2.14,6.52-3.76c1.8-1.6,3.22-3.5,4.22-5.74c1-2.24,1.52-4.69,1.52-7.37
				C127.05,113.14,126.51,110.57,125.43,108.17z"/>
			<path class="st3" d="M88.26,75.45c0.64-0.1,1.24-0.26,1.8-0.41c2.52-0.7,4.4-1.78,5.69-3.27c0.08-0.1,0.18-0.21,0.23-0.31
				c1.42-1.75,2.11-3.94,2.11-6.49c0-2.96-1.29-5.28-3.86-6.93c-2.58-1.67-6.23-2.5-10.97-2.5H66.35v1.96
				c1,0.05,1.83,0.15,2.42,0.31c0.62,0.15,1.08,0.41,1.39,0.82c0.33,0.41,0.54,0.98,0.64,1.67c0.1,0.7,0.15,1.62,0.15,2.76v22.61
				c0,1.13-0.08,2.09-0.21,2.81c-0.13,0.75-0.39,1.31-0.75,1.73c-0.39,0.41-0.9,0.67-1.57,0.82c-0.67,0.15-1.55,0.23-2.63,0.23v1.96
				h19.42v-1.96c-1.54,0-2.81-0.08-3.73-0.23c-0.93-0.15-1.65-0.44-2.14-0.85c-0.49-0.44-0.8-1.03-0.98-1.8
				c-0.15-0.75-0.23-1.75-0.23-2.94v-9.61c0.52,0,1.08,0.18,1.67,0.51c0.62,0.33,1.31,1,2.14,1.98l8.37,10.25
				c0.05,0.08,0.13,0.15,0.18,0.23c0.51,0.44,1.34,0.49,1.88-0.05l4.02-4.02l-6.33-7.24L88.26,75.45z M81.31,72.9h-3.17v-13.8
				c0-0.54,0.28-0.82,0.88-0.82h4.25c2.27,0,4.02,0.64,5.3,1.91c1.26,1.29,1.91,2.96,1.91,5.05c0,2.73-0.77,4.71-2.29,5.9
				C86.67,72.3,84.4,72.9,81.31,72.9z"/>
		</g>
	</g>
</g>
</svg>
